<svg id="Calque_1" data-name="Calque 1" xmlns="http://www.w3.org/2000/svg" xmlns:xlink="http://www.w3.org/1999/xlink" viewBox="0 0 16 16"><defs><style>.cls-1{fill:#000116;}.cls-2{fill:url(#Dégradé_sans_nom_8);}</style><linearGradient id="Dégradé_sans_nom_8" x1="4.57" y1="8" x2="12.09" y2="8" gradientUnits="userSpaceOnUse"><stop offset="0" stop-color="#ce9ffc"/><stop offset="1" stop-color="#7367f0"/></linearGradient></defs><rect class="cls-1" x="-0.5" y="-0.5" width="17" height="17"/><path class="cls-2" d="M8.31,7.84,5.52,3.58a1.16,1.16,0,0,0-.95-.52V2.88h7.52V5.61H11.9A2.81,2.81,0,0,0,9,3.08H6.87l2.6,4A2.26,2.26,0,0,0,9.79,6H10v4H9.79A1.82,1.82,0,0,0,7.87,8.06H7.26v3.86c0,.91.74,1,1.37,1v.18H4.57v-.18c.5,0,1.22-.2,1.22-1V7.84Z"/></svg>